<svg width="17" height="17" viewBox="0 0 17 17" fill="none" xmlns="http://www.w3.org/2000/svg">
<path d="M1.93181 5.40908H5.79544C6.30779 5.40908 6.79916 5.20555 7.16144 4.84327C7.52373 4.48098 7.72726 3.98962 7.72726 3.47727V1.93182C7.72726 1.41947 7.52373 0.928101 7.16144 0.565816C6.79916 0.20353 6.30779 0 5.79544 0H1.93181C1.41947 0 0.928101 0.20353 0.565816 0.565816C0.20353 0.928101 0 1.41947 0 1.93182V3.47727C0 3.98962 0.20353 4.48098 0.565816 4.84327C0.928101 5.20555 1.41947 5.40908 1.93181 5.40908V5.40908ZM0.772726 1.93182C0.772726 1.62441 0.894844 1.32959 1.11222 1.11222C1.32959 0.894844 1.62441 0.772726 1.93181 0.772726H5.79544C6.10285 0.772726 6.39767 0.894844 6.61504 1.11222C6.83242 1.32959 6.95453 1.62441 6.95453 1.93182V3.47727C6.95453 3.78468 6.83242 4.0795 6.61504 4.29687C6.39767 4.51424 6.10285 4.63636 5.79544 4.63636H1.93181C1.62441 4.63636 1.32959 4.51424 1.11222 4.29687C0.894844 4.0795 0.772726 3.78468 0.772726 3.47727V1.93182Z" fill="#1BC6D3"/>
<path d="M15.0682 11.5908H11.2045C10.6922 11.5908 10.2008 11.7944 9.83852 12.1566C9.47623 12.5189 9.27271 13.0103 9.27271 13.5226V15.0681C9.27271 15.5804 9.47623 16.0718 9.83852 16.4341C10.2008 16.7964 10.6922 16.9999 11.2045 16.9999H15.0682C15.5805 16.9999 16.0719 16.7964 16.4341 16.4341C16.7964 16.0718 17 15.5804 17 15.0681V13.5226C17 13.0103 16.7964 12.5189 16.4341 12.1566C16.0719 11.7944 15.5805 11.5908 15.0682 11.5908V11.5908ZM16.2272 15.0681C16.2272 15.3755 16.1051 15.6703 15.8877 15.8877C15.6704 16.1051 15.3756 16.2272 15.0682 16.2272H11.2045C10.8971 16.2272 10.6023 16.1051 10.3849 15.8877C10.1675 15.6703 10.0454 15.3755 10.0454 15.0681V13.5226C10.0454 13.2152 10.1675 12.9204 10.3849 12.703C10.6023 12.4857 10.8971 12.3635 11.2045 12.3635H15.0682C15.3756 12.3635 15.6704 12.4857 15.8877 12.703C16.1051 12.9204 16.2272 13.2152 16.2272 13.5226V15.0681Z" fill="#1BC6D3"/>
<path d="M1.93181 16.9998H5.79544C6.30779 16.9998 6.79916 16.7963 7.16144 16.434C7.52373 16.0717 7.72726 15.5803 7.72726 15.068V8.11346C7.72726 7.60111 7.52373 7.10974 7.16144 6.74746C6.79916 6.38517 6.30779 6.18164 5.79544 6.18164H1.93181C1.41947 6.18164 0.928101 6.38517 0.565816 6.74746C0.20353 7.10974 0 7.60111 0 8.11346V15.068C0 15.5803 0.20353 16.0717 0.565816 16.434C0.928101 16.7963 1.41947 16.9998 1.93181 16.9998V16.9998ZM0.772726 8.11346C0.772726 7.80605 0.894844 7.51123 1.11222 7.29386C1.32959 7.07648 1.62441 6.95437 1.93181 6.95437H5.79544C6.10285 6.95437 6.39767 7.07648 6.61504 7.29386C6.83242 7.51123 6.95453 7.80605 6.95453 8.11346V15.068C6.95453 15.3754 6.83242 15.6702 6.61504 15.8876C6.39767 16.105 6.10285 16.2271 5.79544 16.2271H1.93181C1.62441 16.2271 1.32959 16.105 1.11222 15.8876C0.894844 15.6702 0.772726 15.3754 0.772726 15.068V8.11346Z" fill="#1BC6D3"/>
<path d="M15.0682 0H11.2045C10.6922 0 10.2008 0.20353 9.83852 0.565816C9.47623 0.928101 9.27271 1.41947 9.27271 1.93182V8.88635C9.27271 9.3987 9.47623 9.89006 9.83852 10.2523C10.2008 10.6146 10.6922 10.8182 11.2045 10.8182H15.0682C15.5805 10.8182 16.0719 10.6146 16.4341 10.2523C16.7964 9.89006 17 9.3987 17 8.88635V1.93182C17 1.41947 16.7964 0.928101 16.4341 0.565816C16.0719 0.20353 15.5805 0 15.0682 0V0ZM16.2272 8.88635C16.2272 9.19376 16.1051 9.48858 15.8877 9.70595C15.6704 9.92332 15.3756 10.0454 15.0682 10.0454H11.2045C10.8971 10.0454 10.6023 9.92332 10.3849 9.70595C10.1675 9.48858 10.0454 9.19376 10.0454 8.88635V1.93182C10.0454 1.62441 10.1675 1.32959 10.3849 1.11222C10.6023 0.894844 10.8971 0.772726 11.2045 0.772726H15.0682C15.3756 0.772726 15.6704 0.894844 15.8877 1.11222C16.1051 1.32959 16.2272 1.62441 16.2272 1.93182V8.88635Z" fill="#1BC6D3"/>
</svg>
